<svg xmlns="http://www.w3.org/2000/svg" viewBox="0 0 100 100" fill="#1d70b8">
  <path d="M50 5L55 20H65L57 30L62 45L50 37L38 45L43 30L35 20H45L50 5Z"/>
  <path d="M20 25L25 35H35L28 42L32 52L22 46L12 52L16 42L9 35H19L20 25Z" transform="scale(0.7) translate(10, 20)"/>
  <path d="M80 25L85 35H95L88 42L92 52L82 46L72 52L76 42L69 35H79L80 25Z" transform="scale(0.7) translate(-10, 20)"/>
  <rect x="25" y="55" width="50" height="8" rx="2"/>
  <rect x="20" y="67" width="60" height="28" rx="3"/>
  <rect x="30" y="75" width="15" height="12" rx="1" fill="#ffffff"/>
  <rect x="55" y="75" width="15" height="12" rx="1" fill="#ffffff"/>
</svg>

