<svg xmlns="http://www.w3.org/2000/svg" viewBox="0 0 100 70">
  <path fill="#00A1E0" d="M41.3 16.6c3.2-3.3 7.6-5.4 12.5-5.4 6.3 0 11.8 3.4 14.8 8.4 2.5-1.1 5.3-1.7 8.2-1.7 11.5 0 20.8 9.3 20.8 20.8s-9.3 20.8-20.8 20.8c-1.8 0-3.6-.2-5.3-.7-2.6 4.5-7.5 7.5-13.1 7.5-2.8 0-5.4-.8-7.7-2.1-2.7 5.1-8.1 8.6-14.3 8.6-6.8 0-12.7-4.2-15.1-10.2-1.2.3-2.5.4-3.8.4C7.7 63 0 55.3 0 45.5c0-7.7 4.9-14.2 11.8-16.6-.5-1.7-.8-3.5-.8-5.4 0-10.4 8.4-18.8 18.8-18.8 6.6 0 12.4 3.4 15.8 8.6-.3-.1-4.3 3.3-4.3 3.3z"/>
</svg>
